<svg width="23" height="23" viewBox="0 0 23 23" fill="none" xmlns="http://www.w3.org/2000/svg">
<path d="M11.5 12.4584C13.0878 12.4584 14.375 11.1712 14.375 9.58337C14.375 7.99556 13.0878 6.70837 11.5 6.70837C9.91218 6.70837 8.625 7.99556 8.625 9.58337C8.625 11.1712 9.91218 12.4584 11.5 12.4584Z" stroke="#BBBBBB" stroke-width="2" stroke-linecap="round" stroke-linejoin="round"/>
<path d="M11.5002 1.91669C9.46684 1.91669 7.51679 2.72442 6.07901 4.1622C4.64123 5.59998 3.8335 7.55003 3.8335 9.58335C3.8335 11.3965 4.21875 12.5829 5.271 13.8959L11.5002 21.0834L17.7293 13.8959C18.7816 12.5829 19.1668 11.3965 19.1668 9.58335C19.1668 7.55003 18.3591 5.59998 16.9213 4.1622C15.4835 2.72442 13.5335 1.91669 11.5002 1.91669Z" stroke="#BBBBBB" stroke-width="2" stroke-linecap="round" stroke-linejoin="round"/>
</svg>
