<svg width="50" height="50" viewBox="0 0 50 50" fill="none" xmlns="http://www.w3.org/2000/svg">
<rect width="50" height="50" rx="25" fill="#1F242D"/>
<path d="M22.332 32.6602C22.3086 32.8164 22.2383 32.9375 22.1211 33.0234C22.0039 33.1172 21.8711 33.1641 21.7227 33.1641H21.6523C21.332 33.1328 20.9492 33.1055 20.5039 33.082C20.0586 33.0586 19.5703 33.0391 19.0391 33.0234C18.5156 33.0078 17.957 32.9961 17.3633 32.9883C16.7773 32.9805 16.1836 32.9766 15.582 32.9766C14.9805 32.9766 14.3867 32.9805 13.8008 32.9883C13.2148 32.9961 12.6602 33.0078 12.1367 33.0234C11.6211 33.0391 11.1406 33.0586 10.6953 33.082C10.2578 33.1055 9.88672 33.1328 9.58203 33.1641H9.53516C9.37891 33.1641 9.24219 33.1133 9.125 33.0117C9.00781 32.9102 8.9375 32.7617 8.91406 32.5664C8.91406 32.4102 8.96484 32.2734 9.06641 32.1562C9.17578 32.0391 9.30859 31.9688 9.46484 31.9453C9.69141 31.9219 9.94922 31.9023 10.2383 31.8867C10.5352 31.8711 10.8594 31.8516 11.2109 31.8281L11.4805 17.0156C10.8086 16.9688 10.1289 16.8984 9.44141 16.8047C9.28516 16.7812 9.15625 16.7109 9.05469 16.5938C8.96094 16.4766 8.91406 16.3438 8.91406 16.1953C8.9375 15.9922 9.00781 15.8398 9.125 15.7383C9.24219 15.6289 9.37891 15.5742 9.53516 15.5742H9.60547C10.4258 15.6992 11.2383 15.7891 12.043 15.8438C12.8555 15.8906 13.6602 15.9141 14.457 15.9141C14.9414 15.9141 15.418 15.9062 15.8867 15.8906C16.3555 15.875 16.8242 15.8438 17.293 15.7969H17.3398C17.5195 15.7969 17.668 15.8594 17.7852 15.9844C17.9023 16.1016 17.9609 16.2461 17.9609 16.418C17.9609 16.5742 17.9062 16.7109 17.7969 16.8281C17.6875 16.9375 17.5508 17 17.3867 17.0156C17.0977 17.0391 16.8047 17.0625 16.5078 17.0859C16.2188 17.1016 15.9258 17.1172 15.6289 17.1328L15.2422 31.7578H15.582C16.1133 31.7578 16.6406 31.7617 17.1641 31.7695C17.6875 31.7773 18.1914 31.7891 18.6758 31.8047C19.168 31.8125 19.6289 31.8242 20.0586 31.8398C20.4883 31.8555 20.875 31.875 21.2188 31.8984L22.0859 27C22.1094 26.8438 22.1797 26.7188 22.2969 26.625C22.4141 26.5234 22.543 26.4727 22.6836 26.4727C22.8555 26.4727 23.0039 26.5391 23.1289 26.6719C23.2539 26.7969 23.3164 26.9375 23.3164 27.0938C23.3164 27.1172 23.3125 27.1367 23.3047 27.1523C23.2969 27.168 23.293 27.1875 23.293 27.2109L22.332 32.6602ZM39.6172 28.4414C39.6172 29.293 39.4219 30.0547 39.0312 30.7266C38.6406 31.3906 38.1367 31.9531 37.5195 32.4141C36.9023 32.8672 36.2148 33.2148 35.457 33.457C34.707 33.6992 33.9648 33.8203 33.2305 33.8203C31.8555 33.8203 30.5859 33.5703 29.4219 33.0703C28.2578 32.5703 27.2227 31.8359 26.3164 30.8672V31.1484C26.3164 31.3984 26.3203 31.6445 26.3281 31.8867C26.3359 32.1289 26.3477 32.3711 26.3633 32.6133V32.6602C26.3633 32.8164 26.3086 32.9531 26.1992 33.0703C26.0977 33.1875 25.9609 33.2539 25.7891 33.2695C25.6094 33.2695 25.4609 33.2148 25.3438 33.1055C25.2266 32.9961 25.1602 32.8555 25.1445 32.6836C25.1289 32.4336 25.1172 32.1836 25.1094 31.9336C25.1016 31.6758 25.0977 31.4219 25.0977 31.1719C25.0977 30.375 25.1367 29.6406 25.2148 28.9688C25.293 28.2891 25.3984 27.6172 25.5312 26.9531C25.5703 26.8047 25.6406 26.6836 25.7422 26.5898C25.8516 26.4961 25.9805 26.4492 26.1289 26.4492C26.3086 26.4492 26.457 26.5195 26.5742 26.6602C26.6914 26.793 26.75 26.9297 26.75 27.0703C26.75 27.0859 26.75 27.1055 26.75 27.1289C26.75 27.1445 26.7422 27.1641 26.7266 27.1875C26.6875 27.3672 26.6523 27.5352 26.6211 27.6914C26.5977 27.8398 26.5703 27.9883 26.5391 28.1367C26.5156 28.2773 26.4922 28.4258 26.4688 28.582C26.4531 28.7305 26.4336 28.8984 26.4102 29.0859C27.2852 30.2109 28.2852 31.0781 29.4102 31.6875C30.5352 32.2891 31.8008 32.5898 33.207 32.5898C33.6055 32.5898 34.0312 32.5547 34.4844 32.4844C34.9453 32.4141 35.3672 32.2891 35.75 32.1094C36.1406 31.9219 36.4609 31.6758 36.7109 31.3711C36.9688 31.0586 37.0977 30.6641 37.0977 30.1875C37.0977 29.8516 37.0078 29.5469 36.8281 29.2734C36.6484 28.9922 36.4141 28.7422 36.125 28.5234C35.8359 28.3047 35.5078 28.1133 35.1406 27.9492C34.7812 27.7773 34.418 27.6289 34.0508 27.5039C33.6836 27.3789 33.332 27.2773 32.9961 27.1992C32.668 27.1133 32.3867 27.0469 32.1523 27C31.5977 26.8828 31.0469 26.7539 30.5 26.6133C29.9531 26.4648 29.4336 26.2891 28.9414 26.0859C28.4492 25.8828 27.9922 25.6445 27.5703 25.3711C27.1484 25.0977 26.7812 24.7773 26.4688 24.4102C26.1641 24.0352 25.9219 23.6016 25.7422 23.1094C25.5703 22.6172 25.4844 22.0508 25.4844 21.4102C25.4844 20.7852 25.5664 20.2109 25.7305 19.6875C25.9023 19.1562 26.1367 18.6797 26.4336 18.2578C26.7305 17.8359 27.0781 17.4688 27.4766 17.1562C27.8828 16.8359 28.3242 16.5703 28.8008 16.3594C29.2773 16.1406 29.7773 15.9805 30.3008 15.8789C30.832 15.7695 31.3672 15.7148 31.9062 15.7148C32.2344 15.7148 32.582 15.7422 32.9492 15.7969C33.3242 15.8438 33.6953 15.9141 34.0625 16.0078C34.4297 16.0938 34.7891 16.1992 35.1406 16.3242C35.5 16.4414 35.832 16.5742 36.1367 16.7227C36.4414 16.8633 36.7109 17.0156 36.9453 17.1797C37.1797 17.3359 37.3672 17.4961 37.5078 17.6602C37.6172 17.3633 37.7344 17.0703 37.8594 16.7812C37.9922 16.4844 38.1289 16.1875 38.2695 15.8906C38.332 15.7812 38.4102 15.6992 38.5039 15.6445C38.6055 15.582 38.7109 15.5508 38.8203 15.5508C39 15.5508 39.1484 15.6172 39.2656 15.75C39.3828 15.875 39.4414 16.0156 39.4414 16.1719C39.4414 16.2578 39.418 16.3477 39.3711 16.4414C38.9648 17.2852 38.6289 18.1328 38.3633 18.9844C38.1055 19.8281 37.9219 20.6836 37.8125 21.5508C37.7969 21.707 37.7305 21.8359 37.6133 21.9375C37.5039 22.0312 37.3711 22.0781 37.2148 22.0781C37.0352 22.0781 36.8867 22.0117 36.7695 21.8789C36.6523 21.7461 36.5938 21.6133 36.5938 21.4805V21.4102C36.6875 20.582 36.8555 19.7656 37.0977 18.9609C37.0508 18.8203 36.9297 18.6719 36.7344 18.5156C36.5391 18.3516 36.2969 18.1953 36.0078 18.0469C35.7266 17.8984 35.4062 17.7578 35.0469 17.625C34.6875 17.4844 34.3203 17.3633 33.9453 17.2617C33.5703 17.1602 33.1953 17.0781 32.8203 17.0156C32.4453 16.9531 32.1016 16.9219 31.7891 16.9219C31.3125 16.9219 30.8555 16.9727 30.418 17.0742C29.9805 17.1758 29.5898 17.3398 29.2461 17.5664C28.9102 17.793 28.6367 18.0859 28.4258 18.4453C28.2148 18.7969 28.1055 19.2227 28.0977 19.7227C28.1289 20.1602 28.2461 20.5391 28.4492 20.8594C28.6602 21.1719 28.918 21.4453 29.2227 21.6797C29.5352 21.9141 29.8867 22.1133 30.2773 22.2773C30.668 22.4336 31.0625 22.5703 31.4609 22.6875C31.8672 22.7969 32.2617 22.8945 32.6445 22.9805C33.0273 23.0586 33.375 23.1328 33.6875 23.2031C34.4766 23.3906 35.2305 23.6016 35.9492 23.8359C36.668 24.0703 37.2969 24.3789 37.8359 24.7617C38.3828 25.1445 38.8164 25.6328 39.1367 26.2266C39.457 26.8125 39.6172 27.5508 39.6172 28.4414Z" fill="url(#paint0_linear_3825_3)"/>
<defs>
<linearGradient id="paint0_linear_3825_3" x1="42" y1="25" x2="8" y2="25" gradientUnits="userSpaceOnUse">
<stop stop-color="#27FD20"/>
<stop offset="1" stop-color="white"/>
</linearGradient>
</defs>
</svg>
