<svg width="23" height="23" viewBox="0 0 23 23" fill="none" xmlns="http://www.w3.org/2000/svg">
<path d="M5.3387 7.55838C5.06413 5.75 6.3392 4.12563 8.28701 3.5305C8.63267 3.42554 9.00532 3.45595 9.32938 3.61558C9.65345 3.77521 9.90468 4.05211 10.0321 4.39013L10.6574 6.05763C10.7581 6.32589 10.7763 6.6181 10.7097 6.89678C10.6431 7.17545 10.4948 7.42787 10.2837 7.62163L8.42357 9.32507C8.33177 9.40912 8.26336 9.51558 8.22506 9.63401C8.18676 9.75245 8.17987 9.8788 8.20507 10.0007L8.22232 10.0754L8.26688 10.2623C8.49879 11.1701 8.85124 12.0428 9.31482 12.857C9.821 13.7215 10.4484 14.5091 11.1778 15.1958L11.2353 15.2476C11.3282 15.33 11.4408 15.387 11.5622 15.4129C11.6837 15.4389 11.8098 15.4329 11.9282 15.3956L14.3331 14.6381C14.6064 14.5523 14.8992 14.5501 15.1737 14.6318C15.4483 14.7135 15.6922 14.8753 15.8741 15.0966L17.0126 16.4781C17.487 17.0531 17.4295 17.8983 16.8847 18.4058C15.394 19.7958 13.3441 20.0804 11.9181 18.9348C10.1694 17.5255 8.69577 15.8058 7.57113 13.8618C6.43549 11.9204 5.67897 9.78164 5.3387 7.55838ZM9.71157 10.0956L11.2526 8.68107C11.675 8.29371 11.9719 7.78896 12.1054 7.2316C12.2388 6.67424 12.2027 6.08972 12.0015 5.55307L11.3776 3.88557C11.1217 3.2053 10.6164 2.64797 9.9644 2.32677C9.3124 2.00558 8.56258 1.94461 7.86726 2.15625C5.44795 2.89657 3.50588 5.06575 3.91701 7.77544C4.20451 9.66719 4.8672 12.0736 6.32913 14.5863C7.54255 16.6824 9.13218 18.5366 11.0183 20.056C13.1573 21.7738 16.0121 21.1873 17.8665 19.4594C18.3971 18.9654 18.7192 18.2875 18.767 17.5641C18.8148 16.8407 18.5848 16.1263 18.1238 15.5667L16.9853 14.1838C16.6211 13.7418 16.1332 13.4186 15.584 13.2557C15.0349 13.0928 14.4497 13.0976 13.9033 13.2696L11.9066 13.8978C11.3911 13.3663 10.9395 12.7762 10.5611 12.1397C10.196 11.496 9.9112 10.81 9.71301 10.097" fill="#BBBBBB"/>
</svg>
