<svg width="24" height="24" viewBox="0 0 24 24" fill="none" xmlns="http://www.w3.org/2000/svg">
<path d="M4.59356 4.9839C4.77461 4.96286 4.95797 4.99171 5.12382 5.06732C5.28967 5.14293 5.4317 5.26243 5.53456 5.4129C7.01056 7.5719 8.78256 8.4699 10.7496 8.6739C10.8456 7.8329 11.0726 7.0019 11.4996 6.2699C12.1256 5.1959 13.1436 4.4059 14.5976 4.1139C16.6076 3.7099 18.1376 4.4379 19.0246 5.3289L20.8166 4.9939C21.0041 4.95877 21.1977 4.97801 21.3747 5.04935C21.5516 5.1207 21.7045 5.24117 21.8152 5.39655C21.9259 5.55193 21.9898 5.73574 21.9994 5.92628C22.0091 6.11682 21.964 6.30614 21.8696 6.4719L20.1496 9.4939C20.3066 13.8549 19.0946 16.8989 16.5106 18.9959C15.1406 20.1079 13.1786 20.7389 11.0256 20.9339C8.85556 21.1299 6.40256 20.8929 3.96456 20.1809C3.75625 20.1201 3.57336 19.9933 3.44348 19.8194C3.31361 19.6456 3.2438 19.4343 3.24459 19.2173C3.24538 19.0003 3.31672 18.7894 3.44786 18.6166C3.579 18.4437 3.76281 18.3181 3.97156 18.2589C5.19756 17.9099 6.13156 17.6089 6.97456 17.0819C5.77556 16.4459 4.89256 15.6139 4.26756 14.6659C3.39956 13.3479 3.07756 11.8779 3.01356 10.5529C2.94956 9.2279 3.14056 7.9999 3.34256 7.1149C3.45756 6.6099 3.59156 6.1039 3.77656 5.6199C3.84181 5.44929 3.95255 5.29982 4.09676 5.1877C4.24096 5.07558 4.41212 5.0051 4.59356 4.9839Z" fill="white"/>
</svg>
